<?xml version="1.0" encoding="iso-8859-1"?>
<!-- Generator: Adobe Illustrator 19.0.0, SVG Export Plug-In . SVG Version: 6.00 Build 0)  -->
<svg version="1.1" id="Capa_1" xmlns="http://www.w3.org/2000/svg" xmlns:xlink="http://www.w3.org/1999/xlink" x="0px" y="0px"
	 viewBox="0 0 512 512" style="enable-background:new 0 0 512 512;" xml:space="preserve">
<path style="fill:#87CED9;" d="M418.133,8.533H93.867c-18.85,0-34.133,15.283-34.133,34.133v204.8h392.533v-204.8
	C452.267,23.817,436.983,8.533,418.133,8.533z"/>
<path style="fill:#7DC6D1;" d="M418.133,8.533h-45.508L133.692,247.467h318.575v-204.8C452.267,23.817,436.983,8.533,418.133,8.533z
	"/>
<g>
	<polygon style="fill:#4398D1;" points="304.759,358.4 290.133,307.2 221.867,307.2 207.241,358.4 170.667,358.4 170.667,375.467 
		341.333,375.467 341.333,358.4 	"/>
	<path style="fill:#4398D1;" d="M59.733,273.067c0,18.85,15.283,34.133,34.133,34.133h324.267c18.85,0,34.133-15.283,34.133-34.133
		v-25.6H59.733V273.067z"/>
	<rect x="85.333" y="401.067" style="fill:#4398D1;" width="238.933" height="102.4"/>
	<path style="fill:#4398D1;" d="M392.533,401.067L392.533,401.067c18.85,0,34.133,15.283,34.133,34.133v34.133
		c0,18.85-15.283,34.133-34.133,34.133l0,0c-18.85,0-34.133-15.283-34.133-34.133V435.2
		C358.4,416.35,373.683,401.067,392.533,401.067z"/>
</g>
<g>
	<rect x="110.933" y="460.8" style="fill:#3B86B8;" width="17.067" height="17.067"/>
	<rect x="110.933" y="426.667" style="fill:#3B86B8;" width="17.067" height="17.067"/>
	<rect x="145.067" y="426.667" style="fill:#3B86B8;" width="17.067" height="17.067"/>
	<rect x="179.2" y="426.667" style="fill:#3B86B8;" width="17.067" height="17.067"/>
	<rect x="247.467" y="426.667" style="fill:#3B86B8;" width="17.067" height="17.067"/>
	<rect x="213.333" y="426.667" style="fill:#3B86B8;" width="17.067" height="17.067"/>
	<rect x="281.6" y="460.8" style="fill:#3B86B8;" width="17.067" height="17.067"/>
	<rect x="281.6" y="426.667" style="fill:#3B86B8;" width="17.067" height="17.067"/>
	<rect x="145.067" y="460.8" style="fill:#3B86B8;" width="119.467" height="17.067"/>
	<rect x="384" y="426.667" style="fill:#3B86B8;" width="17.067" height="17.067"/>
</g>
<g>
	
		<rect x="193.865" y="128.156" transform="matrix(-0.2751 0.9614 -0.9614 -0.2751 457.7883 -71.798)" style="fill:#3077A6;" width="124.192" height="17.058"/>
	<path style="fill:#3077A6;" d="M199.339,185.754l-51.2-42.667c-3.618-3.021-4.105-8.397-1.092-12.015
		c0.333-0.393,0.691-0.759,1.092-1.092l51.2-42.667l10.923,13.107l-43.332,36.113l43.332,36.113L199.339,185.754z"/>
	<path style="fill:#3077A6;" d="M312.661,185.754l-10.923-13.107l43.332-36.113l-43.332-36.113l10.923-13.107l51.2,42.667
		c3.618,3.021,4.105,8.397,1.092,12.015c-0.333,0.393-0.691,0.759-1.092,1.092L312.661,185.754z"/>
</g>
<polygon style="fill:#3B86B8;" points="295.006,324.267 290.133,307.2 221.867,307.2 216.994,324.267 "/>
<path d="M460.8,273.067v-230.4C460.774,19.115,441.685,0.026,418.133,0H93.867C70.315,0.026,51.226,19.115,51.2,42.667v230.4
	c0.026,23.552,19.115,42.641,42.667,42.667h116.685L198.366,358.4h-27.699v17.067h170.667V358.4h-27.699l-12.186-42.667h116.685
	C441.685,315.708,460.774,296.619,460.8,273.067z M93.867,17.067h324.267c14.14,0,25.6,11.46,25.6,25.6v196.267H68.267V42.667
	C68.267,28.527,79.727,17.067,93.867,17.067z M295.885,358.4h-79.77l12.186-42.667h55.398L295.885,358.4z M418.133,298.667H93.867
	c-14.14,0-25.6-11.46-25.6-25.6V256h375.467v17.067C443.733,287.206,432.273,298.667,418.133,298.667z"/>
<path d="M85.333,392.533c-4.71,0-8.533,3.823-8.533,8.533v102.4c0,4.71,3.823,8.533,8.533,8.533h238.933
	c4.71,0,8.533-3.823,8.533-8.533v-102.4c0-4.71-3.823-8.533-8.533-8.533H85.333z M315.733,494.933H93.867V409.6h221.867V494.933z"/>
<rect x="110.933" y="460.8" width="17.067" height="17.067"/>
<rect x="110.933" y="426.667" width="17.067" height="17.067"/>
<rect x="145.067" y="426.667" width="17.067" height="17.067"/>
<rect x="179.2" y="426.667" width="17.067" height="17.067"/>
<rect x="247.467" y="426.667" width="17.067" height="17.067"/>
<rect x="213.333" y="426.667" width="17.067" height="17.067"/>
<rect x="281.6" y="460.8" width="17.067" height="17.067"/>
<rect x="281.6" y="426.667" width="17.067" height="17.067"/>
<rect x="145.067" y="460.8" width="119.467" height="17.067"/>
<path d="M349.867,435.2v34.133c0,23.561,19.106,42.667,42.667,42.667s42.667-19.106,42.667-42.667V435.2
	c0-23.561-19.106-42.667-42.667-42.667S349.867,411.639,349.867,435.2z M418.133,435.2v34.133c0,14.14-11.46,25.6-25.6,25.6
	s-25.6-11.46-25.6-25.6V435.2c0-14.14,11.46-25.6,25.6-25.6S418.133,421.06,418.133,435.2z"/>
<rect x="384" y="426.667" width="17.067" height="17.067"/>
<rect x="193.865" y="128.156" transform="matrix(-0.2751 0.9614 -0.9614 -0.2751 457.7883 -71.798)" width="124.192" height="17.058"/>
<path d="M199.339,185.754l10.923-13.107l-43.332-36.113l43.332-36.113l-10.923-13.107l-51.2,42.667
	c-3.618,3.021-4.105,8.397-1.092,12.015c0.333,0.393,0.691,0.759,1.092,1.092L199.339,185.754z"/>
<path d="M312.661,185.754l51.2-42.667c3.618-3.021,4.105-8.397,1.092-12.015c-0.333-0.393-0.691-0.759-1.092-1.092l-51.2-42.667
	l-10.923,13.107l43.332,36.113l-43.332,36.113L312.661,185.754z"/>
<g>
</g>
<g>
</g>
<g>
</g>
<g>
</g>
<g>
</g>
<g>
</g>
<g>
</g>
<g>
</g>
<g>
</g>
<g>
</g>
<g>
</g>
<g>
</g>
<g>
</g>
<g>
</g>
<g>
</g>
</svg>
